<svg xmlns="http://www.w3.org/2000/svg" id="Layer_1" data-name="Layer 1" viewBox="0 0 200 180"><defs><style>.cls-1{fill:#7c5d45}.cls-2{fill:#573f31}.cls-3{fill:#a35f6c}.cls-4{fill:#bc7989}.cls-5{fill:#932c39}.cls-6{fill:#9e4f5c}.cls-7{fill:#9b3445}.cls-8{fill:#e5e5e5}</style></defs><path d="M50.65,131.43l-.92.94-3.34,3.4L16.75,166a1.2,1.2,0,0,1-1.12.33c-6.46-1.46-9.86-8.4-10.83-10.73a1.18,1.18,0,0,1,.26-1.31l28.07-29,4.22-4.35.62.49Z" class="cls-1"/><path d="M49.73,132.37l-3.34,3.4c-8-3.2-11.68-7.67-13.26-10.49l4.22-4.35.62.49A41.24,41.24,0,0,0,49.73,132.37Z" class="cls-2"/><polygon points="137.9 82.96 111.97 133.62 151.24 96.48 151.2 96.23 137.9 82.96" class="cls-3"/><path d="M82.57,81.73l10.18,20.08A25.48,25.48,0,0,1,89,114.53L68.68,95.13Z" class="cls-3"/><path d="M108.9,133.6l-10.33-9.87a43.16,43.16,0,0,0,2.91-4.73Z" class="cls-3"/><path d="M66.76,61.85a39,39,0,0,0-24.14,8.36L26.38,54.67l42.47,0L72.7,62.3A38.62,38.62,0,0,0,66.76,61.85Z" class="cls-4"/><path d="M81.9,80.42l-14,13.5-.52,0L52.23,79.4a26,26,0,0,1,29.18.06Z" class="cls-4"/><polygon points="88.75 33.91 69.13 14.33 68.81 14.27 26.41 53.26 69 53.3 88.75 33.91" class="cls-5"/><polygon points="109.38 13.67 70.47 13.67 89.76 32.92 109.38 13.67" class="cls-6"/><polygon points="131.16 32.91 151.12 13.67 111.51 13.67 111.44 13.72 131.16 32.91" class="cls-6"/><polygon points="132.17 33.9 152.17 53.37 195.27 53.41 152.65 14.14 152.63 14.18 132.17 33.9" class="cls-5"/><polygon points="138.57 81.64 152.37 95.41 195.29 54.82 152.32 54.78 138.57 81.64" class="cls-4"/><path d="M92.15,95.28a23.23,23.23,0,0,1,.52,3.22L91,95.28Z" class="cls-7"/><path d="M130,95.28l-19.57,38.24-8.17-16.12A38.73,38.73,0,0,0,105.88,101a39.59,39.59,0,0,0-.41-5.69Z" class="cls-7"/><path d="M90.81,91.06a21.75,21.75,0,0,1,1,2.81H90.32L84,81.5A25.72,25.72,0,0,1,90.81,91.06Z" class="cls-5"/><path d="M136.84,81.91l-6.12,12H105.23a39.12,39.12,0,0,0-12.38-22l17.23-16.62Z" class="cls-5"/><path d="M108.53,54.74,91.77,70.91a38.82,38.82,0,0,0-17.32-8.3l-4-7.9Z" class="cls-6"/><polygon points="89.75 34.91 71.01 53.3 108.21 53.33 89.75 34.91" class="cls-3"/><polygon points="130.15 33.9 110.38 14.65 90.76 33.92 110.1 53.23 130.15 33.9" class="cls-4"/><polygon points="150.15 53.37 131.16 34.88 112.02 53.34 150.15 53.37" class="cls-3"/><polygon points="137.52 80.59 150.73 54.78 111.62 54.74 137.52 80.59" class="cls-6"/><path d="M66.76,63.73A37.24,37.24,0,1,0,104,101,37.23,37.23,0,0,0,66.76,63.73ZM94.66,101a27.87,27.87,0,1,1-2.1-10.64A27.9,27.9,0,0,1,94.66,101Z" class="cls-8"/></svg>